<svg width="31" height="32" viewBox="0 0 31 32" fill="none" xmlns="http://www.w3.org/2000/svg">
<path d="M24.4719 21.1306C23.926 19.8955 22.6925 19.0288 21.2574 19.0288C20.0612 19.0288 19.0053 19.6323 18.3699 20.5473C16.0399 19.5724 13.4398 17.807 11.4766 14.6119C12.2951 13.9679 12.8308 12.9797 12.8308 11.8599C12.8308 9.96605 11.3232 8.4273 9.44571 8.35644C11.2453 6.90646 20.1181 -1.52588e-05 25.8611 -1.52588e-05C27.1686 -1.52588e-05 28.3126 0.357418 29.1746 1.21946C33.6647 5.70879 26.2824 18.2298 24.4719 21.1306ZM17.873 21.6399C17.6129 21.379 17.2991 21.1477 16.9417 20.9663C15.079 20.0201 12.721 18.416 11.113 15.8711C10.9401 15.597 10.7438 15.3525 10.532 15.1453C10.1505 15.287 9.74319 15.3758 9.31333 15.3758C8.69113 15.3758 8.11488 15.1998 7.60715 14.9148C7.55109 14.9662 7.4958 15.0184 7.44129 15.0776C6.26542 16.378 5.01635 18.2797 4.63867 20.7381C4.3303 22.5128 2.32431 24.673 1.08926 24.673C-0.14501 24.673 4.94704 28.0674 6.79884 19.2725C7.41637 17.0353 10.3483 16.9847 9.1132 19.1705C7.88049 21.3564 4.87151 26.3714 1.47707 28.0682C-1.91738 29.7658 7.34083 26.2935 10.6582 20.5458C11.2757 19.1955 12.5871 20.8199 11.6612 21.7434C10.7353 22.6678 6.61662 26.077 6.3612 28.4996C6.10578 30.9222 7.03168 26.0622 13.9755 22.667C15.2098 22.0495 16.1357 23.7471 14.4381 24.673C12.7405 25.5989 7.14382 28.9933 8.0518 31.771C8.49723 33.0053 9.42235 28.9162 13.8206 27.4507C15.7284 26.8145 17.1169 25.7289 18.0778 24.7026C18.1612 24.613 18.2328 24.5219 18.2974 24.4285C17.9486 23.8826 17.7399 23.2393 17.7399 22.5447C17.7399 22.2301 17.7952 21.9303 17.873 21.6399ZM9.31489 13.8192C9.58277 13.8192 9.83741 13.7647 10.0695 13.6681C10.1909 13.6175 10.3062 13.5552 10.4137 13.482C10.5242 13.4072 10.6255 13.3192 10.7181 13.2242C11.0608 12.8715 11.2742 12.391 11.2742 11.8607C11.2742 10.8242 10.4674 9.98474 9.44883 9.91466C9.40366 9.91154 9.36083 9.90142 9.31489 9.90142C9.223 9.90142 9.13423 9.91621 9.04545 9.92867C8.91385 9.94658 8.7877 9.97695 8.66544 10.0198C7.90385 10.2884 7.35485 11.0072 7.35485 11.8607C7.35563 12.9415 8.23247 13.8192 9.31489 13.8192ZM23.1605 22.0985C23.1278 21.9584 23.078 21.8252 23.0173 21.699C22.7011 21.0426 22.0353 20.5862 21.2574 20.5862C20.7465 20.5862 20.2855 20.7864 19.9366 21.1064C19.8338 21.2007 19.7404 21.3034 19.6594 21.4171C19.5831 21.5254 19.5161 21.6406 19.4624 21.7629C19.3581 22.0027 19.2981 22.2667 19.2981 22.5447C19.2981 23.6271 20.1749 24.504 21.2574 24.504C22.3398 24.5048 23.2166 23.6279 23.2166 22.5455C23.2166 22.5276 23.2119 22.5105 23.2112 22.4926C23.2073 22.3571 23.1901 22.2262 23.1605 22.0985Z" fill="url(#paint0_linear_4_3)"/>
<defs>
<linearGradient id="paint0_linear_4_3" x1="28.9912" y1="0.519983" x2="0.751211" y2="32" gradientUnits="userSpaceOnUse">
<stop stop-color="#1E293B"/>
<stop offset="0.223612" stop-color="#646CFF"/>
<stop offset="1" stop-color="#EFF6FF"/>
</linearGradient>
</defs>
</svg>
