<svg width="924" height="990" viewBox="0 0 924 990" fill="none" xmlns="http://www.w3.org/2000/svg">
<path d="M734.338 653.727C717.446 615.518 679.276 588.704 634.866 588.704C597.853 588.704 565.178 607.375 545.515 635.683C473.417 605.52 392.957 550.904 332.209 452.056C357.535 432.132 374.114 401.56 374.114 366.916C374.114 308.325 327.462 260.72 269.365 258.528C325.053 213.669 599.612 0 777.326 0C817.785 0 853.183 11.0581 879.858 37.7276C1018.8 176.616 790.363 563.986 734.338 653.727ZM530.141 669.483C522.093 661.413 512.381 654.258 501.321 648.644C443.681 619.373 370.716 569.744 320.956 491.012C315.607 482.532 309.534 474.967 302.98 468.559C291.172 472.944 278.57 475.69 265.268 475.69C246.015 475.69 228.183 470.245 212.472 461.428C210.737 463.018 209.026 464.632 207.339 466.463C170.953 506.696 132.302 565.528 120.615 641.585C111.073 696.49 48.9991 763.321 10.7815 763.321C-27.412 763.321 130.157 868.336 187.46 596.245C206.568 527.029 297.293 525.463 259.075 593.089C220.93 660.714 127.82 815.864 22.7817 868.36C-82.2564 920.88 204.231 813.455 306.884 635.635C325.992 593.86 366.571 644.115 337.92 672.688C309.269 701.284 181.821 806.758 173.917 881.707C166.013 956.656 194.665 806.3 409.536 701.26C447.73 682.156 476.381 734.676 423.85 763.321C371.318 791.966 198.134 896.981 226.231 982.916C240.015 1021.1 268.642 894.596 404.741 849.255C463.778 829.573 506.743 795.989 536.478 764.236C539.057 761.465 541.274 758.647 543.274 755.756C532.478 738.867 526.02 718.968 526.02 697.478C526.02 687.745 527.731 678.47 530.141 669.483ZM265.316 427.531C273.606 427.531 281.485 425.844 288.666 422.857C292.425 421.291 295.992 419.364 299.317 417.099C302.739 414.786 305.871 412.064 308.739 409.125C319.342 398.211 325.944 383.347 325.944 366.94C325.944 334.874 300.98 308.903 269.461 306.735C268.064 306.639 266.738 306.326 265.316 306.326C262.473 306.326 259.726 306.783 256.979 307.169C252.907 307.723 249.003 308.662 245.22 309.988C221.653 318.299 204.665 340.536 204.665 366.94C204.689 400.379 231.822 427.531 265.316 427.531ZM693.758 683.673C692.746 679.337 691.204 675.217 689.325 671.314C679.541 651.005 658.938 636.887 634.866 636.887C619.058 636.887 604.793 643.079 593.997 652.981C590.817 655.896 587.925 659.076 585.419 662.593C583.057 665.942 580.985 669.508 579.323 673.29C576.094 680.71 574.238 688.877 574.238 697.478C574.238 730.965 601.371 758.093 634.866 758.093C668.36 758.117 695.493 730.989 695.493 697.502C695.493 696.948 695.349 696.418 695.325 695.864C695.204 691.672 694.674 687.624 693.758 683.673Z" fill="url(#paint0_linear_4_7)"/>
<defs>
<linearGradient id="paint0_linear_4_7" x1="874.183" y1="16.0874" x2="0.528779" y2="990.186" gradientUnits="userSpaceOnUse">
<stop stop-color="#1E293B"/>
<stop offset="1" stop-color="#646CFF"/>
</linearGradient>
</defs>
</svg>
